<svg width="399" height="549" viewBox="0 0 399 549" fill="none" xmlns="http://www.w3.org/2000/svg">
<path d="M247.7 397.7C247 396.6 246.2 395.5 245.4 394.5C242 390 237.9 386.4 233.4 383.1C232.9 383.1 232.4 383 231.9 383C235.1 387.9 237.7 393.1 239.3 398.6C242.2 398.3 245 398 247.7 397.7Z" fill="#BA1A1A"/>
<path d="M193.7 458.3C241 458.3 278.6 437.1 278.6 409.9C278.6 403.4 272.4 394.8 267.3 390.5C267.2 390.4 267.2 390.3 267.1 390.2C265.6 388.5 261.1 386.9 254.2 385.6C256.1 388.8 257.8 392.2 259 395.8C261.2 395.3 263.5 394.6 265.6 393.7C263.5 394.8 261.4 395.6 259.2 396.3C260.2 399.4 261 402.7 261.3 406C261.9 412 261.2 418.3 258.8 423.8C256.4 429.3 252.7 433.9 248 437.7C242.6 442.1 236.3 445 229.8 447.5C238.1 442.6 246.1 436.8 250.6 428C253.4 422.6 254.2 416.5 253.1 410.5C252.3 406.3 250.7 402.4 248.5 398.7C246.1 399.1 243.7 399.5 241.3 399.8C240.9 399.9 240.4 399.9 240 400C240.4 401.5 240.7 403 241 404.5C241.5 407.6 241.5 410.7 241.2 413.9C240.7 411.2 240.1 408.6 239 406.1C238.1 404.2 237.1 402.3 236 400.6C228.2 401.5 220.3 402.1 212.4 402.4C192.7 403.2 172.9 402.9 153.3 400.7C143.8 399.6 133.9 398.3 124.9 394.8C133 397.2 141.5 398 149.9 398.6C159.6 399.4 169.3 399.8 179 400C197.6 400.4 216.3 400.2 234.8 398.8C234.5 398.4 234.3 398 234 397.6C230.9 393.2 226.9 389.3 222.7 385.9C220.9 384.5 219.1 383.2 217.2 381.9C209.9 381.6 202.2 381.4 194.1 381.4C173.5 381.4 154.9 382.7 141.6 384.6C142.1 383.4 142.6 382.2 143 381C144.1 377.7 145 374.4 145.2 371C145.2 371.1 144.9 371.5 144.8 371.6C144.6 371.9 144.4 372.2 144.2 372.6C143.7 373.4 143.2 374.2 142.8 375.1C141.9 376.8 141.2 378.6 140.6 380.5C140.1 382 139.7 383.6 139.4 385.2C137.2 385.5 135.2 385.9 133.3 386.3V386.2C134 383.7 134.8 381 134.8 378.4C134.8 378.6 134.3 379.1 134.2 379.2C132.6 381.6 131.4 384.2 130.4 386.9C125.5 388.1 122.2 389.4 121.2 390.7C115.2 395.2 109 403.5 109 410.1C108.8 437.1 146.3 458.3 193.7 458.3ZM146.5 404.3C149.2 404.3 151.4 406.5 151.4 409.2C151.4 411.9 149.2 414.1 146.5 414.1C143.8 414.1 141.6 411.9 141.6 409.2C141.6 406.5 143.8 404.3 146.5 404.3ZM128.2 401.5C132.4 401.5 135.8 406.8 135.8 413.4C135.8 420 132.4 425.3 128.2 425.3C124 425.3 120.6 420 120.6 413.4C120.7 406.8 124 401.5 128.2 401.5Z" fill="#BA1A1A"/>
<path d="M134.1 379C134.4 378.5 133.7 379.6 134.1 379V379Z" fill="#BA1A1A"/>
<path d="M148.5 381C149 380.2 149.4 379.5 149.8 378.7C150.7 376.9 151.6 375.1 152.3 373.3C153.1 371.4 153.8 369.5 154.3 367.6C154.7 366.2 154.9 364.7 155.2 363.3C155.1 363.8 154.3 364.4 154 364.8C153.5 365.5 153 366.3 152.5 367C151.5 368.7 150.6 370.5 149.8 372.3C149 374.2 148.4 376.2 147.9 378.2C147.7 379 147.5 379.9 147.4 380.7C147.4 381 147.3 381.4 147.3 381.7C147.3 381.8 147.3 382.5 147.3 382.6C147.8 382.5 148.3 381.4 148.5 381Z" fill="#BA1A1A"/>
<path d="M158 373.7C158.5 372.9 159 372.2 159.5 371.4C160.6 369.7 161.5 367.9 162.4 366.1C163.3 364.3 164.1 362.4 164.8 360.5C165.1 359.7 165.4 358.8 165.6 358C165.7 357.8 165.9 356.2 166 356.1C165.8 356.1 164.9 357.3 164.7 357.5C164.1 358.2 163.5 359 163 359.8C161.9 361.5 160.8 363.2 159.9 365.1C158.3 368.3 157.3 371.7 156.7 375.2C157.1 375.2 157.8 373.9 158 373.7Z" fill="#BA1A1A"/>
<path d="M168 366.9C168.6 366.2 169.2 365.4 169.7 364.7C170.9 363.1 172 361.3 173 359.6C174 357.8 175 356 175.9 354.1C176.1 353.8 177.7 349.7 177.5 349.6C177 349.8 176.5 350.6 176.1 351C175.4 351.7 174.8 352.4 174.2 353.2C172.9 354.8 171.8 356.5 170.8 358.2C169.8 360 168.9 361.8 168.1 363.7C167.8 364.6 167.5 365.4 167.2 366.3C167.1 366.8 166.6 367.8 166.8 368.3C167.2 368.1 167.6 367.3 168 366.9Z" fill="#BA1A1A"/>
<path d="M184.1 353.5C185.3 351.7 186.4 349.9 187.4 348C187.8 347.2 188.2 346.3 188.6 345.4C188.8 345 188.9 344.7 189 344.3C189 344.2 189.1 343.8 189.2 343.7C189 343.6 187.8 344.9 187.6 345.1C186.9 345.8 186.2 346.5 185.6 347.2C184.2 348.7 183 350.4 181.8 352.1C180.7 353.8 179.6 355.6 178.8 357.5C178.6 357.8 177.1 362 177.2 362C177.7 362.3 183.7 354.2 184.1 353.5Z" fill="#BA1A1A"/>
<path d="M201.7 338.6L201.6 338.7C201.6 338.7 201.7 338.7 201.7 338.6Z" fill="#BA1A1A"/>
<path d="M188.4 356.3C188.4 356.2 189.8 355.1 189.9 354.9C190.6 354.2 191.2 353.6 191.9 352.9C193.3 351.4 194.7 349.7 196 348.1C197.3 346.4 198.5 344.7 199.6 342.8C200.1 342 200.5 341.2 201 340.3C201.1 340.1 201.4 339.1 201.6 338.7C201.4 338.9 201 339.1 201 339.1C200.7 339.3 200.4 339.6 200 339.9C199.3 340.5 198.5 341.2 197.9 341.8C196.4 343.2 195.1 344.8 193.8 346.4C192.5 348.1 191.3 349.9 190.3 351.7C189.9 352.5 189.5 353.3 189.1 354.2C188.9 354.6 188.2 355.9 188.4 356.3Z" fill="#BA1A1A"/>
<path d="M199.9 351.2C200 351 200.5 350.8 200.6 350.7C200.9 350.5 201.2 350.2 201.5 350C202.2 349.4 202.9 348.8 203.6 348.1C205.1 346.6 206.6 345.1 208 343.5C209.4 341.9 210.8 340.2 212 338.4C212.9 337.1 213.8 335.8 214.4 334.3C213.8 334.7 213.2 335.1 212.6 335.5C211.8 336.1 211 336.7 210.2 337.4C208.6 338.8 207.2 340.2 205.8 341.8C204.4 343.4 203.1 345.1 202 347C201.9 347.3 199.8 351.2 199.9 351.2Z" fill="#BA1A1A"/>
<path d="M387.7 498.2C386.9 494.7 384.6 492.3 382.5 492.8C381.7 493 381 493.6 380.5 494.5C379.8 495.8 378.5 496.6 377.1 496.5C372.5 496.2 366.8 496.5 362.5 496.9C360.6 495.2 358.1 494.2 355.3 494C350.9 493.8 347 496 344.8 499.4L287.4 508.6C285.5 507.1 283.2 506.2 280.6 506.1C276.4 505.9 272.6 507.9 270.3 511.1C268.5 509.8 266.2 508.9 263.8 508.8C258.8 508.6 254.3 511.5 252.4 515.8C225.5 518.5 199.8 519.7 176.1 519.7C107.2 519.7 54.1 508.8 30.9 488.4C23.3 481.7 19.4 474.2 19.4 466.1C19.4 436.7 49.5 417.3 100.8 394.2C97.4 400.2 95.7 406.4 95.7 412.8C95.7 428.6 106.2 443.4 125.2 454.3C129.9 457 134.9 459.3 140.3 461.4L126.8 471.4C124.4 473.2 123.2 476.1 123.6 479C124.1 482.1 126.2 484.7 129.3 485.8C143.7 491 166.1 493.7 194 493.7C221.1 493.7 242.4 492.3 258.8 485.7C261.8 484.5 263.9 481.8 264.3 478.7C264.7 475.8 263.5 473.1 261.1 471.3L247.6 461.3C253 459.2 258 456.9 262.7 454.2C281.7 443.3 292.2 428.5 292.2 412.7C292.2 404.9 289.6 397.3 284.5 390.1L284.4 390C284.3 389.8 284.1 389.6 284 389.4C278.5 381.7 271.2 376.5 263.6 371C251.3 362.1 238.8 353 231.9 333C241.5 327.7 251.1 321.8 261.2 315.7C267.9 311.6 274.9 307.4 282 303.2C364.6 254.7 375 210.4 375.6 193.5C376.1 179.7 371.1 168.1 361.9 161.7C341.2 147.3 314.8 154.1 294 166.9C293.4 166.8 292.8 166.7 292.2 166.7C287.6 166.7 283.9 170.4 283.9 175C283.9 175 283.9 175 283.9 175.1C282.3 174.9 278.8 174 277.5 175.1L249 198.6C246.2 198.1 243.5 198.6 241.4 200.3C236.3 204.6 230.4 214.2 222.8 224.4C218.7 220.8 213.6 218 207.9 216.2C209.7 214.3 210.8 211.7 210.8 208.9V123C210.8 120.2 209.7 117.6 207.9 115.7C219 113.3 226.7 108.2 226.7 102.3C226.7 99.3 224.7 96.5 221.3 94.2H238.4C247.8 94.2 256.3 90.9 259.9 85.9L266.3 76.9C267.8 74.8 266.3 72 263.7 72H205.4L203.2 64.6C209.5 62.1 213.7 57.2 213.7 51.5C213.7 46.9 210.9 42.8 206.4 40.1C213.7 37.4 219.8 31.7 223 24.2L226.6 15.7H160.6L164.2 24.2C167.4 31.7 173.5 37.3 180.8 40.1C176.4 42.8 173.5 46.9 173.5 51.5C173.5 57.1 177.7 62 183.9 64.5L181.8 72H123.5C121 72 119.5 74.8 120.9 76.9L127 85.8C130.5 90.9 139 94.2 148.5 94.2H165.9C162.5 96.5 160.5 99.3 160.5 102.3C160.5 108.2 168.2 113.3 179.3 115.7C177.5 117.6 176.4 120.2 176.4 123V208.9C176.4 211.7 177.5 214.3 179.3 216.2C173.6 218 168.5 220.8 164.4 224.4C156.4 213.8 151 204.6 145.9 200.3C141.6 196.7 134.3 198.4 129.6 204C124.9 209.6 124.6 217.1 128.9 220.7C134.1 225.1 145 229 156.3 234.6C154.4 238.4 153.3 242.6 153.3 247C153.3 252.6 155 257.8 157.9 262.4C152.4 265.7 147.8 269.3 144.2 272.3C139.5 276.3 139.5 283.6 144.2 287.6C148 290.8 152.9 294.5 158.7 298H156.4C153.4 298 150.9 300.5 150.9 303.5V310.4C150.9 313.4 153.4 315.9 156.4 315.9H159.6C155.2 347.5 140.4 359.2 125.5 370C51.8 401.4 7.1 423.9 7 466.2C7 478 12.3 488.6 22.7 497.7C48.2 520.2 103.5 532.1 175.8 532.1C200 532.1 226.2 530.8 253.7 528C255.8 530.7 259 532.5 262.6 532.7C266.8 532.9 270.6 530.9 272.9 527.7C274.7 529 277 529.9 279.4 530C283.1 530.2 286.4 528.7 288.7 526.2L348.9 516.5C350.4 517.3 352.2 517.9 354 518C359.4 518.3 364.1 514.9 365.8 510.1C369.8 508.6 374.8 506.5 378.7 504.4C380 503.7 381.5 503.9 382.7 504.8C383.5 505.4 384.4 505.7 385.2 505.5C387.4 504.9 388.4 501.7 387.7 498.2ZM256.7 477.1C257.1 477.4 257.2 477.6 257.1 478C257 478.4 256.7 479.1 255.9 479.4C239.7 486 216.4 486.9 193.7 486.9C166.6 486.9 145.1 484.3 131.4 479.4C130.7 479.1 130.3 478.6 130.3 478.2C130.2 477.8 130.4 477.5 130.8 477.2L148.2 464.3C149.4 464.7 150.6 465 151.7 465.3C144.7 470.5 135.9 476.2 140.4 478.6C143.1 480 154 482 165.5 482.9C167.8 483.1 170.2 483.3 172.5 483.5C181.4 484.2 190.4 484.5 199.3 484.5C205.8 484.5 212.3 484.4 218.8 483.8C216 483.8 213.2 483.8 210.4 483.7C195.4 483.1 180.5 481.4 165.7 478.9C161.4 478.2 159.9 472.7 163.3 470C164 469.4 164.8 468.9 165.6 468.5C169.5 469.2 173.5 469.7 177.6 470.1C175.9 470.9 174.8 471.8 174.8 472.8C174.8 475.8 183.9 478.2 195 478.2C206.2 478.2 215.2 475.8 215.2 472.8C215.2 471.7 214 470.7 212 469.9C221.6 468.9 230.8 467 239.3 464.4L240.5 465.3C238 466.3 235 467.4 231.9 468.5C224.7 471.1 217.4 473.4 217.4 473.4C217.4 473.4 225 472.8 232.7 471.9C236.5 471.5 240.4 470.9 243.3 470.5C244.8 470.3 246 470 246.8 469.9L256.7 477.1ZM343.3 158C350.7 159.3 358.4 162.5 363.5 168.1C368.8 173.8 371 181.9 371.4 189.5C371.8 197.4 370.3 205.3 367.6 212.7C364.9 220.1 360.9 226.9 356.3 233.3C363.1 221.2 368.7 208.1 369 194.1C369.2 186.6 367.9 178.6 363.6 172.2C359.5 165.9 352.4 162.1 345.3 160C338.3 157.9 331 157.7 323.8 158.5C330.3 157.2 336.9 156.8 343.3 158ZM290.4 170.2C290.2 170.8 290.2 171.4 290.2 171.9C290.2 175.2 292.8 178 296.1 178.2C293.9 179.2 291.3 178.6 289.9 176.6C288.4 174.7 288.6 171.9 290.4 170.2ZM261.4 213.5L289.9 189.8C291.3 188.6 290.7 184.9 290.7 183.2C291 183.2 291.2 183.3 291.5 183.3C291.5 183.3 291.5 183.3 291.6 183.3C291.7 183.3 291.8 183.3 291.9 183.3C295.5 183.3 298.6 181 299.7 177.7C312.5 169.8 336.1 158.9 354.7 171.8C360.4 175.8 363.5 183.5 363.1 193.1C362.7 204.7 355.1 246 275.5 292.7C268.3 296.9 261.3 301.2 254.5 305.3C245.5 310.8 236.9 316 228.4 320.8C228.1 319.2 227.8 317.5 227.6 315.8H230.8C233.8 315.8 236.3 313.3 236.3 310.3V303.4C236.3 300.4 233.8 297.9 230.8 297.9H228.5C234.3 294.5 239.2 290.7 243 287.5C247.7 283.5 247.7 276.2 243 272.2C239.4 269.2 234.7 265.6 229.3 262.3C232.3 257.7 233.9 252.5 233.9 246.9C233.9 242.5 232.8 238.3 230.9 234.5C242.2 228.9 253.1 224.9 258.3 220.6C260.4 218.9 261.4 216.3 261.4 213.5ZM181.8 142.8C181.9 146.3 182 149.8 182.1 153.4C182.4 167.5 182.5 181.6 182.3 195.7C182.3 197.5 182.2 199.3 182.2 201.1C182.1 202.8 182.5 204.4 183.2 206C184.3 208.8 185.7 211.7 187.8 213.9C185.7 212.2 184.1 209.8 182.9 207.5C182.2 206.1 181.5 204.7 181.1 203.2C180.8 202.1 180.9 200.9 180.8 199.8C180.5 192.7 180.3 185.6 180.1 178.5C179.9 171.2 179.9 163.9 179.8 156.6C179.8 149.4 179.6 142.1 180 134.8C180.2 131.1 180.7 127.4 182.2 123.9C183.4 121 185.4 118.8 187.8 116.9C185.9 118.7 184.3 120.8 183.4 123.3C182.3 126.2 181.9 129.4 181.8 132.5C181.4 135.9 181.6 139.3 181.8 142.8ZM189.7 224.6C192.8 224.6 195.3 227.1 195.3 230.2C195.3 233.3 192.8 235.8 189.7 235.8C186.6 235.8 184.1 233.3 184.1 230.2C184.1 227.1 186.6 224.6 189.7 224.6ZM212 275C225 273.8 227.4 267.9 227.4 267.9C231.8 270.4 240.1 276 238.3 279C234 286 200.6 282 196.2 279.8C191.7 277.5 203.2 275.9 212 275ZM195.4 117.9C200.8 120 204.7 125.9 204.7 132.7V199.1C204.7 206 200.8 211.8 195.4 213.9C197.4 211.2 198.6 207.7 198.6 203.8V128C198.6 124.1 197.4 120.6 195.4 117.9ZM213.1 301.7C221.5 301.7 228.2 302.9 228.2 304.3C228.2 305.7 221.4 306.9 213.1 306.9C204.7 306.9 198 305.7 198 304.3C198 302.8 204.7 301.7 213.1 301.7ZM246.8 202.2C245.2 205 247 208.4 248.8 210.6C251 213.3 253.8 214.6 257.1 215.4C253.5 216.9 249.3 215.3 246.9 212.4C244.8 209.9 242.7 204 246.8 202.2ZM233.3 215.6C235.8 212.2 238.5 208.7 241.7 206.1C241.7 206.2 241.7 206.4 241.7 206.5C240.2 210.3 237.8 213.9 235.4 217.2C232.9 220.7 230.1 224.2 226.8 226.9C228.3 222.8 230.8 219.1 233.3 215.6ZM219.5 229.3C225.7 235.6 227.9 243.6 224.4 247.1C220.8 250.6 212.9 248.4 206.6 242.1C200.4 235.8 198.2 227.8 201.7 224.3C205.3 220.8 213.3 223 219.5 229.3ZM204.1 102.9C196.2 102.9 189.8 101.1 189.8 99C189.8 96.9 196.2 95.1 204.1 95.1C212 95.1 218.4 96.9 218.4 99C218.4 101.1 211.9 102.9 204.1 102.9ZM199.5 43.5C201.6 41.8 205.1 42.5 207.3 45.2C209.4 47.9 209.5 51.4 207.3 53.1C205.2 54.8 201.7 54.1 199.5 51.4C197.4 48.8 197.4 45.2 199.5 43.5ZM167.8 18.9C170.7 22.5 173.1 26.5 176.5 29.7C178.4 31.5 180.4 33.1 182.6 34.5C184.5 35.7 186.5 36.6 188.5 37.7C178 37.3 170 28.8 167.8 18.9ZM177.8 53.4C176.5 48.2 180.2 43 185.2 41.8C183.7 43.2 182.2 44.5 181.3 46.4C180.3 48.5 179.9 50.9 180.4 53.1C180.8 54.9 181.7 56.5 183 57.9C184.4 59.4 186.1 60.5 187.7 61.7C182.9 61 178.9 58.1 177.8 53.4ZM188 72L185.4 71.8L187.3 65.2L188 72ZM156.5 90.8C152.2 90.8 147.8 91 143.5 90.3C139.2 89.6 135.1 87.8 131.8 84.7C128.9 81.9 127 78.5 125 75C127.5 77.4 129.5 80.2 132.1 82.4C135.1 84.9 138.7 86.6 142.6 87.4C146.7 88.2 150.9 88.1 155 88.1C159.4 88.2 163.9 88.2 168.3 88.3C186 88.5 203.7 88.7 221.4 89.2C228.7 89.4 236 89.6 243.3 89.8C228.2 90.2 213 90.5 197.9 90.6C188.6 90.7 179.4 90.7 170.1 90.7C165.5 90.9 161 90.8 156.5 90.8ZM168.4 108.2C166.2 106.6 164 103.9 164.9 101C165.6 98.5 168.1 97 170.5 96.2C169.1 97.6 167.3 99.1 166.9 101.1C166.4 103.8 169.3 105.8 171.3 107C175.3 109.4 179.9 110.7 184.2 112.5C178.8 112.7 172.8 111.4 168.4 108.2ZM146 206.5C148.6 209.6 161.5 225.4 161.5 225.4L160.3 226.8C160.3 226.8 149.4 218.2 142.1 211.8C134.9 205.4 141.3 200.9 146 206.5ZM143.9 225.8C139.4 223.5 134.7 221 130.8 217.7C135.8 218.9 140.6 221.2 145.1 223.5C149.6 225.8 154.3 228.3 158.2 231.6C153.2 230.3 148.4 228.1 143.9 225.8ZM158.7 240.7C160.3 233.5 165.8 227.4 172.2 224C175.3 222.4 178.5 221.3 181.9 220.5C179.5 221.8 177.1 222.9 174.8 224.4C171.9 226.3 169.3 228.4 166.9 230.9C162.2 235.9 159.8 242.7 159.8 249.4C159.8 252.5 160.3 255.4 160.6 258.4C159.4 255.6 158.5 252.8 158.1 249.8C157.7 246.8 158 243.7 158.7 240.7ZM149.9 286.2C147.3 283.8 145.3 280.6 147 277.1C148.5 273.9 151.9 271.7 154.9 270C158.1 268.1 161.4 266.6 164.9 265.4C162.8 266.9 160.6 268.4 158.5 269.9C155.7 271.9 152.7 273.9 150.5 276.5C149.5 277.8 148.6 279.3 149.2 281C149.7 282.5 150.9 283.8 152.1 284.8C154.6 287.2 157.5 289.2 160.4 291.1C162.9 292.8 165.3 294.5 167.7 296.3C165 295.2 162.3 293.9 159.7 292.5C156.1 290.7 152.7 288.8 149.9 286.2ZM159.4 312.2C159 311.9 158.6 311.7 158.2 311.3C158 311.1 157.8 310.9 157.6 310.7C157.4 310.5 157.3 310.2 157.1 310C156.9 309.8 156.8 309.5 156.6 309.2C156.5 308.9 156.3 308.6 156.2 308.3C156.1 308 156 307.7 156 307.3C156 307 155.9 306.6 155.9 306.3L156 305.3C156.1 305 156.2 304.7 156.3 304.3C156.4 304 156.6 303.7 156.7 303.4L156.9 303C157 302.9 157.1 302.8 157.2 302.6C157.4 302.4 157.6 302.1 157.8 301.9C158 301.7 158.2 301.5 158.5 301.4C158.9 301.1 159.4 300.9 159.8 300.7C160.2 300.5 160.6 300.4 161 300.3C161.3 300.2 161.6 300.2 161.9 300.2C162.4 300.2 162.7 300.2 162.7 300.2C162.7 300.2 162.5 300.4 162.1 300.7C161.9 300.9 161.6 301 161.4 301.2C161.2 301.4 160.9 301.6 160.6 301.9C160.4 302.2 160 302.5 159.8 302.8C159.7 303 159.6 303.1 159.4 303.3C159.3 303.5 159.2 303.7 159.1 303.8C159 304 158.9 304.2 158.8 304.4C158.7 304.6 158.6 304.8 158.6 305C158.6 305.2 158.5 305.4 158.5 305.6C158.5 305.8 158.5 306 158.4 306.2V306.8C158.4 307 158.5 307.2 158.5 307.4C158.5 307.6 158.6 307.8 158.7 308C158.8 308.2 158.8 308.4 158.9 308.6C159 308.8 159.1 309 159.2 309.2C159.3 309.4 159.4 309.6 159.5 309.7C159.7 310.1 160 310.4 160.2 310.7C160.4 311 160.7 311.3 160.9 311.5C161.1 311.8 161.3 312 161.5 312.1C161.8 312.5 162 312.7 162 312.7C162 312.7 161.7 312.7 161.2 312.6C161 312.5 160.6 312.5 160.3 312.3C160.2 312.6 159.8 312.5 159.4 312.2ZM108.8 394.4L109 394.1C109.1 394 109.2 393.8 109.3 393.7C114.2 387 121 382 128.2 376.8C144.2 365.2 162.1 352.4 166.9 315.9H172.3C172.1 317.6 171.8 319.2 171.5 320.9C169.9 328.6 167.6 336.3 164.4 343.5C162.9 346.9 161.1 350.4 159 353.5C157.3 356 155.4 358.3 153.3 360.5C156.4 358.4 159.3 356 161.8 353.3C171.5 342.7 178.5 329.6 182.9 316H220.6C221.4 322.4 222.7 328.1 224.3 333.2C224 333.4 223.7 333.6 223.4 333.8C221.7 335.1 220.1 336.5 218.6 338.1C217.1 339.6 215.8 341.2 214.6 342.9C214 343.7 213.5 344.5 213 345.3C212.7 345.8 212.5 346.7 212.1 347.1C212.5 346.6 213.4 346.3 213.8 345.9C214.6 345.3 215.4 344.7 216.1 344.1C217.7 342.8 219.2 341.4 220.7 339.9C222.2 338.4 223.6 336.9 224.9 335.2C232.4 357.5 246.4 367.6 259.2 376.9C266.4 382.1 273.2 387 278.1 393.8C278.2 394 278.3 394.1 278.5 394.3L278.6 394.4C282.8 400.3 285 406.6 285 412.9C285 426.1 275.8 438.7 259 448.3C241.6 458.3 218.5 463.8 193.8 463.8C169.1 463.8 146 458.3 128.6 448.3C111.8 438.7 102.6 426.1 102.6 412.9C102.5 406.5 104.6 400.3 108.8 394.4ZM98.1 519.2C84.1 517.2 70.2 514.1 56.8 509.4C50.1 507 43.6 504.2 37.4 500.7C31.7 497.5 26.2 493.6 21.8 488.8C17.2 483.7 14.4 477.5 13.6 470.7C12.9 463.8 14.2 456.8 16.8 450.5C21.6 438.9 30.8 429.2 41.5 422.8C42.3 422.3 43.1 421.9 43.9 421.4C34.2 428 25.8 436.2 20.5 446.8C14.7 458.5 13.2 473.3 21.2 484.3C25 489.5 30.2 493.5 35.6 496.8C41.3 500.4 47.5 503.3 53.8 505.8C66.8 510.9 80.4 514.4 94.1 517C106.6 519.4 119.2 520.9 131.9 522C132.8 522.1 133.7 522.2 134.6 522.2C122.4 521.8 110.2 520.9 98.1 519.2ZM268.3 522.2C266.5 523.5 263.7 522.7 261.9 520.3C260.1 517.9 260.1 515 261.9 513.6C263.7 512.3 266.5 513.1 268.3 515.5C270.1 517.9 270.1 520.9 268.3 522.2ZM284.8 519C283 520.3 280.2 519.5 278.4 517.1C276.6 514.7 276.6 511.8 278.4 510.4C280.2 509.1 283 509.9 284.8 512.3C286.6 514.7 286.6 517.7 284.8 519ZM325.9 508.8C317.7 510.3 309.4 511.5 301.2 512.3C298.4 512.6 295.5 512.8 292.7 512.9C298.8 511.1 305.2 509.9 311.4 508.7C319.6 507.2 327.9 506 336.1 505.2C338.9 504.9 341.8 504.7 344.6 504.6C338.5 506.4 332.2 507.6 325.9 508.8ZM360.7 507.3C358.9 508.6 356.1 507.8 354.3 505.4C352.5 503 352.5 500.1 354.3 498.7C356.1 497.4 358.9 498.2 360.7 500.6C362.5 502.9 362.5 505.9 360.7 507.3ZM372.5 500.8C370.4 500.9 368 500.8 366.1 499.8C367.9 498.7 370.2 498.3 372.3 498.1C374.4 498 376.8 498.1 378.7 499.1C376.9 500.3 374.6 500.7 372.5 500.8ZM384 499.5C383.2 499.7 382.3 498.9 382 497.7C381.7 496.5 382.1 495.4 382.9 495.2C383.7 495 384.6 495.8 384.9 497C385.3 498.2 384.8 499.3 384 499.5Z" fill="#BA1A1A"/>
</svg>
